<svg xmlns="http://www.w3.org/2000/svg" version="1.2" viewBox="0 0 116 123">
  <path fill="#496ac7" fill-rule="evenodd" d="M26.2 13.9c0-3.8 1.6-7.3 4.1-9.8 2.5-2.5 6-4.1 9.8-4.1h61.8c3.8 0 7.3 1.6 9.8 4.1 2.5 2.5 4.1 6 4.1 9.9v64.6c0 3.8-1.6 7.3-4.1 9.8-2.5 2.5-6 4.1-9.9 4.1H89.6v16.4c0 3.9-1.5 7.4-4 9.9-2.6 2.5-6.1 4.1-9.9 4.1H14c-3.9 0-7.3-1.6-9.9-4.1-2.5-2.5-4-6-4.1-9.9V35.6c.1-3.8 1.6-7.3 4.1-9.8 2.5-2.5 6-4.1 9.9-4.1h12.2zm49.5 7.8v.1c3.8 0 7.3 1.5 9.8 4 2.5 2.6 4.1 6 4.1 9.9V82h12.2c1 0 1.8-.4 2.4-1 .6-.6 1-1.5 1-2.4V14c0-.9-.4-1.8-1-2.4-.6-.6-1.4-1-2.3-1H40.1c-.9 0-1.7.4-2.3 1-.7.6-1.1 1.5-1.1 2.4h.1v7.7zm-65 87.3h-.1c0 .9.4 1.7 1 2.3.7.7 1.5 1.1 2.4 1.1v-.1h61.7v.1c1 0 1.8-.4 2.4-1 .6-.7 1-1.5 1-2.4V35.7c0-.9-.4-1.8-1-2.4-.6-.6-1.4-1-2.3-1H14c-.9 0-1.7.4-2.3 1-.7.6-1.1 1.5-1.1 2.4h.1z"/>
</svg>
